<svg width="46" height="47" viewBox="0 0 46 47" fill="none" xmlns="http://www.w3.org/2000/svg">
<path d="M20.8354 0.00301277C26.3683 0.00301277 27.3941 3.43841 27.3876 7.16455C27.3941 18.5884 27.3876 27.4726 27.3941 39.4052C27.3876 44.2124 25.2461 46.3199 20.134 46.3199C14.4357 46.3199 13.2575 46.5765 4.5178 46.3532C3.50323 46.3273 2.41256 46.2097 1.71222 45.4751C0.29485 43.9886 0.130184 41.2547 1.16689 39.4593C2.04182 37.9441 4.05071 37.8387 5.80036 37.8387H18.1647V8.82388C18.1516 8.5887 17.9779 8.6671 17.8542 8.64677C4.30744 8.82388 17.8542 8.64677 4.30745 8.82388C2.46996 8.64677 0.972331 7.55505 0.759544 5.49936C0.472932 2.72651 1.38053 0.699856 3.41721 0.000109261C20.8343 0.000164187 3.41927 -0.000161994 20.8323 0.000109212C20.8339 0.000109237 20.8354 0.0014092 20.8354 0.00301277Z" fill="#007AFF"/>
<path d="M38.9904 29.4044C42.5857 29.4044 45.5002 26.4964 45.5002 22.9092C45.5002 19.3221 42.5857 16.4141 38.9904 16.4141C35.395 16.4141 32.4805 19.3221 32.4805 22.9092C32.4805 26.4964 35.395 29.4044 38.9904 29.4044Z" fill="#007AFF"/>
</svg>
